<svg width="61" height="42" viewBox="0 0 61 42" fill="none" xmlns="http://www.w3.org/2000/svg">
<path d="M36.5 1.5V20H2V1.5H36.5Z" fill="#C63619"/>
<path fill-rule="evenodd" clip-rule="evenodd" d="M39 34H26C26 37.3137 23.3137 40 20 40C16.6863 40 14 37.3137 14 34H2V27H43.5V7.5H49L59 18.5V34H51C51 37.3137 48.3137 40 45 40C41.6863 40 39 37.3137 39 34ZM20 38C22.2091 38 24 36.2091 24 34C24 31.7909 22.2091 30 20 30C17.7909 30 16 31.7909 16 34C16 36.2091 17.7909 38 20 38ZM49 34C49 36.2091 47.2091 38 45 38C42.7909 38 41 36.2091 41 34C41 31.7909 42.7909 30 45 30C47.2091 30 49 31.7909 49 34Z" fill="#C63619"/>
<path d="M26 34V32.5C25.1716 32.5 24.5 33.1716 24.5 34H26ZM14 34H15.5C15.5 33.1716 14.8284 32.5 14 32.5V34ZM43.5 27V28.5C44.3284 28.5 45 27.8284 45 27H43.5ZM51 34V32.5C50.1716 32.5 49.5 33.1716 49.5 34H51ZM39 34H40.5C40.5 33.1716 39.8284 32.5 39 32.5V34ZM2 34H0.5C0.5 34.8284 1.17157 35.5 2 35.5L2 34ZM2 27V25.5C1.17157 25.5 0.5 26.1716 0.5 27H2ZM43.5 7.5V6C42.6716 6 42 6.67157 42 7.5H43.5ZM49 7.5L50.1099 6.49099C49.8256 6.17828 49.4226 6 49 6V7.5ZM59 18.5H60.5C60.5 18.1269 60.3609 17.7671 60.1099 17.491L59 18.5ZM59 34V35.5C59.8284 35.5 60.5 34.8284 60.5 34H59ZM36.5 1.5H38V0H36.5V1.5ZM36.5 20V21.5H38V20H36.5ZM2 20H0.5C0.5 20.8284 1.17157 21.5 2 21.5L2 20ZM2 1.5V0C1.17157 0 0.5 0.671573 0.5 1.5L2 1.5ZM26 35.5H39V32.5H26V35.5ZM14 32.5H2V35.5H14V32.5ZM3.5 34V27H0.5V34H3.5ZM2 28.5H43.5V25.5H2V28.5ZM45 27V7.5H42V27H45ZM43.5 9H49V6H43.5V9ZM47.8901 8.50901L57.8901 19.509L60.1099 17.491L50.1099 6.49099L47.8901 8.50901ZM57.5 18.5V34H60.5V18.5H57.5ZM59 32.5H51V35.5H59V32.5ZM35 1.5V20H38V1.5H35ZM36.5 18.5H2V21.5H36.5V18.5ZM3.5 20V1.5H0.5V20H3.5ZM2 3H36.5V0H2V3ZM49.5 34C49.5 36.4853 47.4853 38.5 45 38.5V41.5C49.1421 41.5 52.5 38.1421 52.5 34H49.5ZM45 38.5C42.5147 38.5 40.5 36.4853 40.5 34H37.5C37.5 38.1421 40.8579 41.5 45 41.5V38.5ZM24.5 34C24.5 36.4853 22.4853 38.5 20 38.5V41.5C24.1421 41.5 27.5 38.1421 27.5 34H24.5ZM20 38.5C17.5147 38.5 15.5 36.4853 15.5 34H12.5C12.5 38.1421 15.8579 41.5 20 41.5V38.5ZM22.5 34C22.5 35.3807 21.3807 36.5 20 36.5V39.5C23.0376 39.5 25.5 37.0376 25.5 34H22.5ZM20 36.5C18.6193 36.5 17.5 35.3807 17.5 34H14.5C14.5 37.0376 16.9624 39.5 20 39.5V36.5ZM17.5 34C17.5 32.6193 18.6193 31.5 20 31.5V28.5C16.9624 28.5 14.5 30.9624 14.5 34H17.5ZM20 31.5C21.3807 31.5 22.5 32.6193 22.5 34H25.5C25.5 30.9624 23.0376 28.5 20 28.5V31.5ZM47.5 34C47.5 35.3807 46.3807 36.5 45 36.5V39.5C48.0376 39.5 50.5 37.0376 50.5 34H47.5ZM45 36.5C43.6193 36.5 42.5 35.3807 42.5 34H39.5C39.5 37.0376 41.9624 39.5 45 39.5V36.5ZM42.5 34C42.5 32.6193 43.6193 31.5 45 31.5V28.5C41.9624 28.5 39.5 30.9624 39.5 34H42.5ZM45 31.5C46.3807 31.5 47.5 32.6193 47.5 34H50.5C50.5 30.9624 48.0376 28.5 45 28.5V31.5Z" fill="#C63619"/>
</svg>
