<svg width="43" height="43" viewBox="0 0 43 43" fill="none" xmlns="http://www.w3.org/2000/svg">
<path d="M10.4201 38.8903L31.6721 17.8903C32.1593 17.9846 32.5 18 33 18C37.4182 18 41 14.4183 41 10L34.3018 15.6982L27.3018 8.69819L34 2H33C28.5817 2 25 5.58172 25 10C25.0034 10.5391 25.0284 10.8293 25.1097 11.3278L4.1097 32.5799C4.82475 32.1012 5.57493 32 6.50001 32C8.98529 32 11 34.0147 11 36.5C11 37.425 10.8987 38.1753 10.4201 38.8903Z" fill="#C63619"/>
<path d="M10.4201 38.8903L31.6721 17.8903C32.1593 17.9846 32.5 18 33 18C37.4182 18 41 14.4183 41 10L34.3018 15.6982L27.3018 8.69819L34 2H33C28.5817 2 25 5.58172 25 10C25.0034 10.5391 25.0284 10.8293 25.1097 11.3278L4.1097 32.5799M10.4201 38.8903L8.99996 40.2422C8.28491 40.7209 7.42503 41 6.49996 41C4.01468 41 2.00001 38.9853 2.00001 36.5C2.00001 35.5749 2.27914 34.715 2.75778 34L4.1097 32.5799M10.4201 38.8903C10.8987 38.1753 11 37.425 11 36.5C11 34.0147 8.98529 32 6.50001 32C5.57493 32 4.82475 32.1012 4.1097 32.5799M2.82843 2.82843C1.26634 4.39053 1.26634 6.92319 2.82843 8.48529L12.0208 17.6777M2.82843 2.82843C4.39053 1.26634 6.92319 1.26634 8.48529 2.82843L17.6777 12.0208M2.82843 2.82843L14.8492 14.8492M28 28L34 34M34 34C34 34 35 33.5 36.5 34.5C38 35.5 41 41 41 41C41 41 35.5625 37.9375 34.5625 36.4375C33.5625 34.9375 34 34 34 34Z" stroke="#C63619" stroke-width="3" stroke-linecap="square" stroke-linejoin="round"/>
</svg>
