<svg width="41" height="49" viewBox="0 0 41 49" fill="none" xmlns="http://www.w3.org/2000/svg">
<path d="M35.4337 17C35.4337 25.2843 28.6479 32 20.2771 32C11.9063 32 5.12048 25.2843 5.12048 17C5.12048 8.71573 11.9063 2 20.2771 2C28.6479 2 35.4337 8.71573 35.4337 17Z" fill="#C63619"/>
<path d="M6.01205 32.3848L2 41.7059L9.13253 41.2647L12.253 47L16.2651 37.2516C11.6792 36.9595 9.28679 35.1754 6.01205 32.3848Z" fill="#C63619"/>
<path d="M34.988 32.3848L39 41.7059L31.8675 41.2647L28.747 47L24.7349 37.2516C29.3208 36.9595 31.7132 35.1754 34.988 32.3848Z" fill="#C63619"/>
<path d="M6.01205 32.3848L6.98496 31.2431C6.62249 30.9342 6.13488 30.8158 5.67111 30.9241C5.20735 31.0323 4.82254 31.3543 4.63426 31.7918L6.01205 32.3848ZM2 41.7059L0.62221 41.1128C0.416192 41.5915 0.47334 42.1427 0.77316 42.5689C1.07298 42.9951 1.57251 43.2352 2.0926 43.203L2 41.7059ZM9.13253 41.2647L10.4501 40.5478C10.1716 40.0358 9.62166 39.7316 9.03993 39.7676L9.13253 41.2647ZM12.253 47L10.9354 47.7169C11.2119 48.2251 11.7561 48.529 12.3339 48.4978C12.9116 48.4666 13.4199 48.1059 13.6401 47.5709L12.253 47ZM16.2651 37.2516L17.6522 37.8225C17.8362 37.3754 17.7934 36.867 17.5372 36.4569C17.2811 36.0469 16.843 35.7854 16.3604 35.7547L16.2651 37.2516ZM34.988 32.3848L36.3657 31.7918C36.1775 31.3543 35.7926 31.0323 35.3289 30.9241C34.8651 30.8158 34.3775 30.9342 34.015 31.2431L34.988 32.3848ZM39 41.7059L38.9074 43.203C39.4275 43.2352 39.927 42.9951 40.2268 42.5689C40.5267 42.1427 40.5838 41.5915 40.3778 41.1128L39 41.7059ZM31.8675 41.2647L31.9601 39.7676C31.3783 39.7316 30.8284 40.0358 30.5499 40.5478L31.8675 41.2647ZM28.747 47L27.3599 47.5709C27.5801 48.1059 28.0884 48.4666 28.6661 48.4978C29.2439 48.529 29.7881 48.2251 30.0646 47.7169L28.747 47ZM24.7349 37.2516L24.6396 35.7547C24.157 35.7854 23.7189 36.0469 23.4628 36.4569C23.2066 36.867 23.1638 37.3754 23.3478 37.8225L24.7349 37.2516ZM33.9337 17C33.9337 24.4412 27.8342 30.5 20.2771 30.5V33.5C29.4616 33.5 36.9337 26.1274 36.9337 17H33.9337ZM20.2771 30.5C12.72 30.5 6.62048 24.4412 6.62048 17H3.62048C3.62048 26.1274 11.0926 33.5 20.2771 33.5V30.5ZM6.62048 17C6.62048 9.55881 12.72 3.5 20.2771 3.5V0.5C11.0926 0.5 3.62048 7.87265 3.62048 17H6.62048ZM20.2771 3.5C27.8342 3.5 33.9337 9.55881 33.9337 17H36.9337C36.9337 7.87265 29.4616 0.5 20.2771 0.5V3.5ZM4.63426 31.7918L0.62221 41.1128L3.37779 42.2989L7.38984 32.9778L4.63426 31.7918ZM2.0926 43.203L9.22513 42.7618L9.03993 39.7676L1.9074 40.2087L2.0926 43.203ZM7.81493 41.9816L10.9354 47.7169L13.5706 46.2831L10.4501 40.5478L7.81493 41.9816ZM16.3604 35.7547C12.2754 35.4944 10.1964 33.9798 6.98496 31.2431L5.03914 33.5265C8.37714 36.371 11.0829 38.4245 16.1697 38.7486L16.3604 35.7547ZM13.6401 47.5709L17.6522 37.8225L14.8779 36.6808L10.8659 46.4291L13.6401 47.5709ZM33.6102 32.9778L37.6222 42.2989L40.3778 41.1128L36.3657 31.7918L33.6102 32.9778ZM39.0926 40.2087L31.9601 39.7676L31.7749 42.7618L38.9074 43.203L39.0926 40.2087ZM30.5499 40.5478L27.4294 46.2831L30.0646 47.7169L33.1851 41.9816L30.5499 40.5478ZM24.8303 38.7486C29.9171 38.4245 32.6229 36.371 35.9609 33.5265L34.015 31.2431C30.8036 33.9798 28.7246 35.4944 24.6396 35.7547L24.8303 38.7486ZM30.1341 46.4291L26.1221 36.6808L23.3478 37.8225L27.3599 47.5709L30.1341 46.4291Z" fill="#C63619"/>
</svg>
